<svg width="98" height="40" viewBox="0 0 98 40" fill="none" xmlns="http://www.w3.org/2000/svg">
<path fill-rule="evenodd" clip-rule="evenodd" d="M12.9172 7.257L8.86133 11.2523L9.33667 11.7263C9.59812 11.987 9.84543 12.2003 9.88627 12.2003C9.92711 12.2003 10.0865 12.1057 10.2405 11.9899C10.6896 11.6525 11.6154 11.262 12.3132 11.1156C13.3326 10.9018 15.2721 11.0577 15.2721 11.3534C15.2721 11.3985 15.2102 11.5532 15.1345 11.6971C15.0242 11.9073 14.9596 11.9476 14.8073 11.9012C14.3314 11.756 12.8676 11.7508 12.3069 11.8922C11.6749 12.0518 10.5161 12.6299 10.5161 12.7858C10.5161 12.8416 11.5371 13.8941 12.785 15.1247L15.0539 17.3621L15.107 16.3498C15.144 15.6452 15.2187 15.1675 15.3529 14.7787C15.828 13.4021 16.8478 12.2535 18.1566 11.6211C20.0686 10.6971 22.121 10.8338 23.761 11.9943L24.1957 12.3019L24.7093 11.8014L25.2227 11.3008L21.1423 7.28132C18.898 5.07049 17.0417 3.26172 17.0174 3.26172C16.993 3.26172 15.1479 5.05957 12.9172 7.257ZM19.679 11.8705C19.439 11.9149 18.9166 12.1062 18.5179 12.2954C16.9004 13.0634 15.8691 14.6605 15.86 16.4117C15.8541 17.529 16.2087 18.5207 16.8207 19.0982L17.0662 19.3297L20.3315 16.1129C23.5873 12.9054 23.5964 12.8954 23.432 12.7167C23.1911 12.4544 22.1086 11.9557 21.5652 11.8564C21.0049 11.754 20.2787 11.7595 19.679 11.8705ZM4.12323 15.9181L0 19.9798L4.05804 23.9757C6.28996 26.1735 8.14654 27.9817 8.18389 27.9939C8.22115 28.0062 8.46419 27.8041 8.72407 27.5451L9.19644 27.0739L8.92967 26.7063C8.31898 25.8649 8.01494 25.0431 7.90176 23.928C7.83814 23.3012 7.96014 22.1138 8.118 21.8233C8.20352 21.6659 8.22011 21.6651 8.51733 21.8047C8.78035 21.9283 8.82006 21.9833 8.77887 22.1677C8.64998 22.7462 8.62537 23.7247 8.72511 24.3071C8.83411 24.9438 9.37612 26.1632 9.64926 26.3865C9.76742 26.483 10.1023 26.1865 12.1363 24.1843C13.429 22.9118 14.4867 21.8471 14.4867 21.8184C14.4867 21.7896 14.2805 21.7997 14.0285 21.8407C13.0772 21.9954 11.6927 21.6994 10.6324 21.1147C9.6017 20.5462 8.62292 19.3694 8.19942 18.1894C7.96529 17.537 7.8693 15.9229 8.02175 15.1999C8.14523 14.6139 8.54299 13.7714 8.96064 13.2111L9.27533 12.7889L8.80784 12.3227C8.55075 12.0663 8.31924 11.8565 8.29341 11.8565C8.26758 11.8565 6.39101 13.6843 4.12323 15.9181ZM25.2817 12.3545L24.779 12.8549L25.2123 13.4956C25.7882 14.3474 26.093 15.3585 26.093 16.4171C26.093 17.2391 25.9751 17.9357 25.7947 18.1786C25.6872 18.3235 25.6666 18.3211 25.3999 18.1342C25.1815 17.981 25.1315 17.8961 25.1761 17.7545C25.3214 17.2946 25.3273 15.8467 25.1862 15.3042C25.0252 14.6855 24.7035 14.0111 24.3996 13.6554L24.1947 13.4156L21.7846 15.7878C20.459 17.0926 19.384 18.1676 19.3958 18.1769C19.4076 18.1861 19.6921 18.1562 20.0281 18.1105C21.5502 17.9032 23.5504 18.6537 24.6181 19.8328C25.1292 20.3972 25.5314 21.073 25.8132 21.8406C26.0163 22.3939 26.0449 22.6024 26.0471 23.5454C26.0499 24.8337 25.8589 25.5279 25.2506 26.4401L24.865 27.0183L25.3706 27.5163L25.8761 28.0142L29.9552 23.996L34.0342 19.9779L29.9094 15.916L25.7846 11.8541L25.2817 12.3545ZM9.56514 13.6851C9.17174 14.1932 8.81631 15.0653 8.71001 15.7834C8.42928 17.6803 9.52107 19.7242 11.267 20.5705C11.8873 20.8711 12.867 21.1342 13.3777 21.1374C13.8295 21.1401 14.9531 20.8689 15.3978 20.6496C15.9438 20.3805 16.4065 20.0443 16.4065 19.9168C16.4065 19.812 9.95338 13.4036 9.84788 13.4036C9.81227 13.4036 9.68504 13.5302 9.56514 13.6851ZM19.7663 18.9061C19.0053 19.0565 17.8328 19.6287 17.7442 19.893C17.7283 19.9404 19.1861 21.4274 20.9837 23.1975C24.1286 26.2939 24.2585 26.4101 24.4172 26.2686C24.5079 26.1878 24.6888 25.9139 24.8191 25.6602C25.7402 23.8673 25.3604 21.6852 23.875 20.2343C22.7523 19.1378 21.1745 18.6277 19.7663 18.9061ZM13.6795 23.7698C11.8676 25.5504 10.3852 27.0401 10.3852 27.0803C10.3852 27.1206 10.5914 27.2881 10.8433 27.4527C12.2007 28.3391 13.9433 28.4143 15.5339 27.6551C16.1995 27.3373 17.2363 26.3701 17.5392 25.7842C18.4205 24.0796 18.2895 22.1077 17.2091 20.8141L16.9738 20.5325L13.6795 23.7698ZM18.7961 22.3421C19.2115 23.9793 18.6109 26.0129 17.3381 27.2788C15.4057 29.2007 12.502 29.5033 10.2863 28.0138L9.76236 27.6615L9.43685 27.9456C9.25778 28.1017 9.03927 28.321 8.95122 28.4328L8.79109 28.6361L12.9042 32.6871L17.0174 36.7381L21.1638 32.6543L25.3103 28.5705L24.8014 28.0746L24.2926 27.5786L23.9493 27.8484C23.0905 28.5232 21.7572 28.9601 20.556 28.9601C19.9036 28.9601 18.8917 28.7773 18.7447 28.6329C18.7109 28.5995 18.7659 28.4435 18.8673 28.286C19.0224 28.0446 19.0868 28.0086 19.2778 28.0561C19.8578 28.2007 21.1685 28.2021 21.7297 28.0589C22.3254 27.907 23.0901 27.5439 23.4993 27.2189L23.7418 27.0263L21.2417 24.5768C19.5814 22.95 18.7599 22.1994 18.7961 22.3421Z" fill="#007650"/>
<path fill-rule="evenodd" clip-rule="evenodd" d="M75.551 0.312231C75.3969 0.691722 74.6291 4.01614 74.5567 4.6174C74.5035 5.05888 74.5861 5.19239 74.8563 5.10198C74.9399 5.07408 75.1548 4.75288 75.3338 4.38816C75.8821 3.27166 76.3784 2.80863 77.3295 2.52633C77.9415 2.34466 80.0172 2.22961 82.7539 2.22566L84.9139 2.22257L84.9082 11.0445C84.9013 21.6014 84.8139 26.5572 84.6139 27.7069C84.4609 28.5872 84.2505 29.0749 83.9105 29.3381C83.7166 29.4881 83.0417 29.6474 82.2957 29.719C82.1268 29.7353 82.0775 29.7885 82.0775 29.9546V30.1693L87.0302 30.1852C91.7501 30.2004 91.9871 30.1938 92.0685 30.0439C92.2048 29.7935 92.0274 29.7314 90.8652 29.6233C90.2742 29.5684 89.6637 29.4711 89.5083 29.4072C89.1328 29.2528 88.8004 28.8502 88.6336 28.3475C88.3165 27.3916 88.2939 26.5447 88.2568 14.2506L88.2204 2.19535L90.9091 2.25004C93.6745 2.30619 94.3969 2.37205 95.4008 2.65976C96.6236 3.01006 97.1492 3.59887 97.3001 4.78731C97.3444 5.13538 97.4163 5.45537 97.46 5.49839C97.5809 5.6173 97.8092 5.49589 97.86 5.2858C97.8849 5.18294 97.933 4.02747 97.9672 2.71805C98.0229 0.575901 98.0151 0.332064 97.889 0.284413C97.8119 0.255393 97.345 0.302786 96.8515 0.389932C96.0188 0.536921 95.3284 0.54834 87.2703 0.54834C78.1294 0.54834 77.3752 0.521381 76.4482 0.16198C75.8172 -0.0827149 75.7036 -0.0637404 75.551 0.312231ZM42.3995 0.698505C42.2595 0.955821 42.389 1.01455 43.2889 1.10161C44.7841 1.24628 45.3105 1.5728 45.6161 2.54488C45.7616 3.00782 45.7712 3.79505 45.7712 15.3159C45.7712 28.1908 45.7636 28.4932 45.3742 31.1566C44.9751 33.8857 44.1985 35.6955 42.7214 37.3384C42.0273 38.1104 41.521 38.5618 40.7311 39.113C40.2064 39.4792 40.0547 39.6315 40.0547 39.7925C40.0547 39.9575 40.1002 40 40.2764 40C40.5919 40 40.9957 39.7777 42.2366 38.9209C45.1338 36.9204 46.831 35.2417 47.728 33.4895C48.3739 32.2276 48.7824 30.7986 48.947 29.2248C48.9964 28.7526 49.0622 28.1731 49.0932 27.937C49.1242 27.7009 49.1768 21.9441 49.2103 15.1442C49.2654 3.932 49.2846 2.74063 49.4167 2.35135C49.6973 1.52317 50.2081 1.20807 51.5023 1.06477C52.0061 1.00897 52.2103 0.838539 52.0098 0.641324C51.9446 0.577102 50.4565 0.545421 47.2034 0.538981C42.6027 0.52988 42.4891 0.533658 42.3995 0.698505ZM54.9818 0.622521C54.8692 0.733277 54.8649 0.908427 54.9731 0.97428C55.018 1.00158 55.4206 1.06005 55.8676 1.10418C56.9106 1.20713 57.271 1.31393 57.6339 1.62732C58.0452 1.98268 58.2073 2.45009 58.2997 3.54838C58.4046 4.79538 58.4019 23.8055 58.2966 25.7556C58.2088 27.3811 58.0342 28.4176 57.7588 28.9487C57.5415 29.3678 57.0953 29.5744 56.2005 29.67C55.5795 29.7364 55.546 29.751 55.546 29.9546V30.1693L58.5569 30.1735C60.213 30.1758 62.4908 30.2259 63.6189 30.2848C66.562 30.4387 68.2856 30.245 69.9671 29.5715C72.2913 28.6408 73.8139 27.2596 74.8017 25.1858C75.2661 24.2107 75.4892 23.3127 75.5472 22.1845C75.6989 19.2375 74.2536 16.6525 71.3971 14.7616C70.8147 14.3761 69.4199 13.6952 69.0081 13.5954C68.876 13.5634 68.7681 13.4917 68.7681 13.4359C68.7681 13.3802 68.9674 13.143 69.2111 12.9086C69.8602 12.2843 70.8732 11.0314 71.329 10.2893C72.0603 9.0984 72.525 7.24697 72.3981 6.02907C72.1544 3.68868 70.5664 1.83758 68.1135 1.03455C66.6891 0.568259 66.6066 0.56285 60.6329 0.547653C56.8943 0.538208 55.0426 0.562678 54.9818 0.622521ZM65.6304 1.85947C66.397 2.12898 66.7894 2.35419 67.3137 2.82563C68.204 3.62608 68.88 4.8985 69.1797 6.33808C69.3745 7.27358 69.3753 9.2308 69.1811 9.94977C68.7752 11.4527 67.6984 12.8828 66.7582 13.1672C65.8023 13.4564 62.0992 13.4178 61.7281 13.1148C61.6331 13.0372 61.6116 12.0068 61.6116 7.53725V2.0548L61.8115 1.92593C62.3374 1.58696 64.7365 1.54515 65.6304 1.85947ZM65.7571 14.6308C67.1461 14.9122 68.284 15.5313 69.392 16.6086C70.9184 18.0926 71.8305 20.1075 72.0778 22.5421C72.3675 25.3942 71.4117 27.4096 69.2774 28.447C68.1718 28.9844 67.349 29.1334 65.8444 29.069C64.0402 28.9918 62.5421 28.4949 62.076 27.8193C61.686 27.2537 61.6733 27.0484 61.6362 20.6932C61.6168 17.3703 61.624 14.5922 61.6523 14.5196C61.6971 14.4048 61.9216 14.3944 63.3813 14.4386C64.3943 14.4693 65.3355 14.5455 65.7571 14.6308Z" fill="#010202"/>
</svg>
