<svg width="81" height="36" viewBox="0 0 81 36" fill="none" xmlns="http://www.w3.org/2000/svg">
<path fill-rule="evenodd" clip-rule="evenodd" d="M3.71482 0.113421C3.65136 0.175706 3.59916 1.12413 3.59916 2.22133V4.21582H5.79695H7.99475L7.99502 2.10791L7.9953 0H5.91289C4.76756 0 3.77856 0.0511358 3.71482 0.113421ZM19.3958 8.00651C17.7271 8.32392 16.9227 8.71858 15.6802 9.8302C14.1227 11.223 13.3131 12.9393 12.9398 15.6385C12.5623 18.3684 12.9439 21.9557 13.8002 23.725C14.1063 24.3574 14.9524 25.4053 15.6804 26.0535C19.9208 29.8279 26.9447 28.1266 28.7958 22.8766C29.4892 20.911 29.4883 14.9988 28.7944 13.0258C27.5197 9.39991 23.462 7.23298 19.3958 8.00651ZM42.0322 7.99781C41.488 8.10742 40.477 8.5252 39.7855 8.92638C39.0943 9.32729 38.4839 9.65558 38.4295 9.65558C38.3748 9.65558 38.335 9.31886 38.341 8.90761C38.3518 8.16644 38.3334 8.15883 36.3564 8.07968L34.3614 7.99972L34.4334 17.8713L34.5056 27.7428H36.4287H38.3518L38.4891 20.9303C38.6095 14.9667 38.6883 14.0245 39.1221 13.3696C40.3284 11.5492 42.9743 10.9826 44.466 12.2253L45.2652 12.8911L46.8317 11.324C48.3089 9.84597 48.3701 9.73255 47.9078 9.3311C46.5814 8.17896 44.0201 7.59772 42.0322 7.99781ZM54.172 8.04677C51.5336 8.55947 49.8069 10.5042 49.1913 13.6563C48.9943 14.6653 48.9097 16.6908 48.9808 18.688C49.1525 23.4932 50.0707 25.3615 52.9121 26.6883C55.2616 27.785 58.9055 27.3797 60.1572 25.8818C60.8932 25.0014 61.0915 25.3874 60.9585 27.4403C60.8151 29.6524 60.2745 30.8571 59.0047 31.7941C58.3934 32.2453 57.8401 32.3647 56.3948 32.3573C54.6443 32.3486 53.9278 32.1166 52.4377 31.0765C52.0325 30.7937 51.7819 30.9215 50.7207 31.9526C50.0372 32.6165 49.4781 33.2508 49.4781 33.3621C49.4781 33.7972 51.9286 35.201 53.4558 35.6405C55.5528 36.244 58.4314 36.0743 60.3962 35.2314C62.0486 34.5224 63.5648 32.9913 64.4129 31.1758C64.9816 29.9581 65 29.5782 65 19.0392V8.15965H63.0769C61.1833 8.15965 61.1525 8.17107 61.0671 8.90761C60.961 9.82013 60.8882 9.82585 59.8967 8.99982C59.4638 8.63916 58.4816 8.21078 57.7143 8.04786C56.1465 7.71495 55.8805 7.71495 54.172 8.04677ZM3.87334 8.07968C3.74751 30.0903 3.72032 31.4037 3.38625 31.7342C3.19367 31.9249 2.3901 32.1452 1.60054 32.2238L0.165109 32.3666L0.0826906 34.0951L0 35.8233L2.30081 35.727C4.23542 35.6457 4.77745 35.5151 5.70574 34.9067C7.88348 33.4796 7.85738 33.6583 7.85738 20.1271V8.15965L5.86563 8.07968C4.77003 8.03589 3.87361 8.03589 3.87334 8.07968ZM59.7649 12.679C61.6888 14.9425 61.255 21.91 59.1102 23.193C58.0797 23.8096 56.3017 23.8762 55.2566 23.3377C53.7207 22.5462 53.2182 21.3731 53.0929 18.2863C52.9668 15.1769 53.3355 13.5398 54.3836 12.5561C55.897 11.1355 58.5036 11.1948 59.7649 12.679ZM23.0952 12.036C24.8079 12.8912 25.165 13.9122 25.165 17.9512C25.165 21.134 25.104 21.5842 24.5535 22.4608C23.6702 23.8664 22.423 24.4517 20.6664 24.2847C19.6774 24.1906 19.0219 23.9496 18.5271 23.4981C17.3172 22.3936 17.0606 21.3878 17.0617 17.7559C17.0626 14.9025 17.1422 14.2862 17.6087 13.529C18.7428 11.6876 21.1084 11.0438 23.0952 12.036Z" fill="#010202"/>
<path fill-rule="evenodd" clip-rule="evenodd" d="M81 26.4465L79.1821 24.1253C78.9147 24.2861 78.6246 24.4307 78.3116 24.5591C77.629 24.8459 76.857 24.9893 75.9956 24.9893C74.793 24.9893 73.7284 24.6935 72.8021 24.1021C71.8919 23.4928 71.185 22.6595 70.6811 21.6022C70.1936 20.5269 69.9498 19.3172 69.9498 17.9731C69.9498 16.7007 70.2179 15.5358 70.7543 14.4785C71.2906 13.4032 72.0057 12.5609 72.8996 11.9516C73.8097 11.3244 74.7848 11.0108 75.825 11.0108C76.9707 11.0108 78.0992 11.3705 79.2105 12.0899L80.7952 10.0666L80.9688 9.6129C80.2862 9.14695 79.498 8.76165 78.6041 8.45699C77.7265 8.15233 76.7676 8 75.7275 8C74.0372 8 72.5258 8.43907 71.1931 9.3172C69.8766 10.1774 68.8446 11.3781 68.097 12.9194C67.3657 14.4606 67 16.2079 67 18.1613C67 19.9534 67.3657 21.6022 68.097 23.1075C68.8446 24.595 69.901 25.7867 71.2662 26.6828C72.6477 27.5609 74.2566 28 76.0931 28C77.182 28 78.1815 27.8118 79.0917 27.4355C79.8719 27.1185 80.508 26.7888 81 26.4465Z" fill="url(#paint0_linear_8_76)"/>
<defs>
<linearGradient id="paint0_linear_8_76" x1="70.8297" y1="9.22614" x2="80.6556" y2="18.2054" gradientUnits="userSpaceOnUse">
<stop stop-color="#DDD8B2"/>
<stop offset="1" stop-color="#DDC56C"/>
</linearGradient>
</defs>
</svg>
