<svg width="104" height="52" viewBox="0 0 104 52" fill="none" xmlns="http://www.w3.org/2000/svg">
<path d="M9.5148 15.7943H8.33065L1.19454 3.0437V15.7943H0V0.822623H1.19454L8.34103 13.5938V0.822623H9.5148V15.7943Z" fill="#787878"/>
<path d="M16.1423 16C14.8197 16 13.7844 15.5716 13.0365 14.7147C12.2886 13.8578 11.9078 12.6375 11.8939 11.054V9.69666C11.8939 8.06512 12.254 6.78663 12.9742 5.86118C13.6944 4.92888 14.6847 4.46272 15.945 4.46272C17.1638 4.46272 18.0917 4.8569 18.7288 5.64524C19.3728 6.43359 19.7017 7.6401 19.7156 9.26478V10.3342H13.0365V10.9614C13.0365 12.2365 13.3101 13.2202 13.8571 13.9126C14.4111 14.605 15.1902 14.9512 16.1943 14.9512C17.3023 14.9512 18.199 14.5501 18.8846 13.7481L19.4871 14.509C18.753 15.503 17.6381 16 16.1423 16ZM15.945 5.53213C15.0378 5.53213 14.3384 5.8509 13.8467 6.48843C13.362 7.11911 13.0954 8.04456 13.0469 9.26478H18.5626V8.96658C18.5072 6.67695 17.6347 5.53213 15.945 5.53213Z" fill="#787878"/>
<path d="M24.1202 13.2648L24.2137 13.8817L24.3384 13.2134L26.634 4.66838H27.6L29.8748 13.1414L30.041 14.0154L30.1761 13.2339L32.1185 4.66838H33.3027L30.55 15.7943H29.584L27.143 6.95116L27.091 6.6838L27.0495 6.96144L24.65 15.7943H23.6736L20.9417 4.66838H22.1155L24.1202 13.2648Z" fill="#787878"/>
<path d="M40.5506 8.96658L44.3212 0.822623H45.682L41.1323 10.1594V15.7943H39.9482V10.1594L35.4089 0.822623H36.8008L40.5506 8.96658Z" fill="#787878"/>
<path d="M46.1083 9.66581C46.1083 8.0617 46.4753 6.79349 47.2093 5.86118C47.9434 4.92888 48.944 4.46272 50.2113 4.46272C51.4855 4.46272 52.4861 4.92202 53.2132 5.84062C53.9473 6.75921 54.3177 8.02399 54.3247 9.63496V10.8175C54.3247 12.449 53.9542 13.7207 53.2132 14.6324C52.4792 15.5441 51.4855 16 50.2321 16C48.9786 16 47.9849 15.5544 47.2509 14.6632C46.5169 13.7721 46.136 12.545 46.1083 10.982V9.66581ZM47.2717 10.8175C47.2717 12.0994 47.5314 13.1071 48.0507 13.8406C48.577 14.5741 49.3041 14.9409 50.2321 14.9409C51.1808 14.9409 51.9044 14.5878 52.403 13.8817C52.9085 13.1757 53.1647 12.1645 53.1717 10.8483V9.66581C53.1717 8.38389 52.9085 7.37618 52.3822 6.64267C51.8559 5.90231 51.1323 5.53213 50.2113 5.53213C49.318 5.53213 48.6082 5.89203 48.0819 6.61183C47.5556 7.33162 47.2855 8.32219 47.2717 9.58355V10.8175Z" fill="#787878"/>
<path d="M60.973 5.73779C60.696 5.6898 60.4536 5.66581 60.2459 5.66581C59.6088 5.66581 59.0721 5.88175 58.6358 6.31362C58.2065 6.7455 57.9018 7.34533 57.7217 8.11311V15.7943H56.5688V4.66838H57.701L57.7217 6.33419C58.2688 5.08655 59.1275 4.46272 60.2978 4.46272C60.6025 4.46272 60.8345 4.50728 60.9938 4.5964L60.973 5.73779Z" fill="#787878"/>
<path d="M64.9206 10.2314L63.7468 11.527V15.7943H62.5834V0H63.7468V10.0463L64.7128 8.8329L68.1926 4.66838H69.6261L65.6789 9.36761L70 15.7943H68.6289L64.9206 10.2314Z" fill="#787878"/>
<path d="M35.834 14.874H37.0814V26.0508C37.0814 27.5803 36.7126 28.7894 35.975 29.678C35.2373 30.5593 34.2574 31 33.0353 31C31.748 31 30.7537 30.5994 30.0522 29.7982C29.3507 28.9897 29 27.8571 29 26.4004H30.2366C30.2366 27.5512 30.4825 28.4143 30.9743 28.9897C31.4732 29.5578 32.1603 29.8419 33.0353 29.8419C33.8742 29.8419 34.5467 29.5032 35.0529 28.8258C35.5664 28.1485 35.8267 27.2416 35.834 26.1054V14.874Z" fill="#343434"/>
<path d="M44.3601 31C42.9789 31 41.8977 30.5448 41.1167 29.6343C40.3357 28.7239 39.938 27.4274 39.9235 25.7449V24.3027C39.9235 22.5692 40.2995 21.2108 41.0516 20.2275C41.8037 19.2369 42.8379 18.7416 44.154 18.7416C45.4268 18.7416 46.3959 19.1605 47.0612 19.9981C47.7337 20.8357 48.0772 22.1176 48.0917 23.8438V24.9801H41.1167V25.6465C41.1167 27.0013 41.4024 28.0465 41.9737 28.7821C42.5522 29.5178 43.3658 29.8856 44.4144 29.8856C45.5714 29.8856 46.508 29.4595 47.2239 28.6073L47.853 29.4158C47.0865 30.4719 45.9222 31 44.3601 31ZM44.154 19.8779C43.2067 19.8779 42.4763 20.2166 41.9628 20.894C41.4566 21.5641 41.1782 22.5473 41.1276 23.8438H46.8876V23.527C46.8298 21.0943 45.9186 19.8779 44.154 19.8779Z" fill="#343434"/>
<path d="M53.1358 28.0938L53.2334 28.7494L53.3636 28.0392L55.7609 18.9602H56.7697L59.1454 27.9627L59.3189 28.8914L59.4599 28.0611L61.4884 18.9602H62.725L59.8504 30.7815H58.8416L56.2924 21.3856L56.2382 21.1015L56.1948 21.3965L53.689 30.7815H52.6694L49.8165 18.9602H51.0422L53.1358 28.0938Z" fill="#343434"/>
<path d="M69.0275 31C67.6462 31 66.5651 30.5448 65.7841 29.6343C65.003 28.7239 64.6053 27.4274 64.5908 25.7449V24.3027C64.5908 22.5692 64.9669 21.2108 65.719 20.2275C66.4711 19.2369 67.5052 18.7416 68.8214 18.7416C70.0942 18.7416 71.0632 19.1605 71.7285 19.9981C72.4011 20.8357 72.7446 22.1176 72.759 23.8438V24.9801H65.7841V25.6465C65.7841 27.0013 66.0697 28.0465 66.641 28.7821C67.2196 29.5178 68.0331 29.8856 69.0817 29.8856C70.2388 29.8856 71.1753 29.4595 71.8912 28.6073L72.5204 29.4158C71.7538 30.4719 70.5895 31 69.0275 31ZM68.8214 19.8779C67.874 19.8779 67.1436 20.2166 66.6302 20.894C66.1239 21.5641 65.8455 22.5473 65.7949 23.8438H71.555V23.527C71.4971 21.0943 70.5859 19.8779 68.8214 19.8779Z" fill="#343434"/>
<path d="M76.675 30.7815H75.4601V14H76.675V30.7815Z" fill="#343434"/>
<path d="M83.8886 31C82.5074 31 81.4262 30.5448 80.6452 29.6343C79.8642 28.7239 79.4664 27.4274 79.452 25.7449V24.3027C79.452 22.5692 79.828 21.2108 80.5801 20.2275C81.3322 19.2369 82.3664 18.7416 83.6825 18.7416C84.9553 18.7416 85.9244 19.1605 86.5897 19.9981C87.2622 20.8357 87.6057 22.1176 87.6202 23.8438V24.9801H80.6452V25.6465C80.6452 27.0013 80.9309 28.0465 81.5022 28.7821C82.0807 29.5178 82.8943 29.8856 83.9429 29.8856C85.0999 29.8856 86.0364 29.4595 86.7524 28.6073L87.3815 29.4158C86.615 30.4719 85.4507 31 83.8886 31ZM83.6825 19.8779C82.7352 19.8779 82.0048 20.2166 81.4913 20.894C80.9851 21.5641 80.7067 22.5473 80.6561 23.8438H86.4161V23.527C86.3582 21.0943 85.4471 19.8779 83.6825 19.8779Z" fill="#343434"/>
<path d="M94.7904 20.0964C94.5012 20.0454 94.248 20.0199 94.0311 20.0199C93.3658 20.0199 92.8053 20.2494 92.3497 20.7082C91.9014 21.1671 91.5832 21.8044 91.3951 22.6202V30.7815H90.1911V18.9602H91.3734L91.3951 20.7301C91.9664 19.4045 92.8632 18.7416 94.0853 18.7416C94.4035 18.7416 94.6458 18.789 94.8121 18.8837L94.7904 20.0964Z" fill="#343434"/>
<path d="M102.785 27.8753C102.785 27.3655 102.575 26.9212 102.156 26.5424C101.736 26.1564 101.024 25.7376 100.019 25.286C99.021 24.8271 98.3231 24.4484 97.9254 24.1497C97.5276 23.8438 97.2347 23.5124 97.0467 23.1555C96.8587 22.7986 96.7647 22.3762 96.7647 21.8882C96.7647 20.9777 97.0901 20.2275 97.741 19.6375C98.3918 19.0403 99.2343 18.7416 100.268 18.7416C101.382 18.7416 102.272 19.0585 102.937 19.6922C103.602 20.3258 103.935 21.1635 103.935 22.205H102.731C102.731 21.5349 102.503 20.9814 102.047 20.5443C101.592 20.1 100.999 19.8779 100.268 19.8779C99.5597 19.8779 98.9957 20.06 98.5762 20.4242C98.164 20.7883 97.9579 21.2618 97.9579 21.8445C97.9579 22.3179 98.117 22.7039 98.4352 23.0026C98.7534 23.3012 99.4404 23.7054 100.496 24.2153C101.588 24.696 102.34 25.093 102.753 25.4062C103.165 25.7194 103.476 26.069 103.685 26.455C103.895 26.8338 104 27.2853 104 27.8098C104 28.7858 103.664 29.5615 102.991 30.1369C102.319 30.7123 101.433 31 100.334 31C99.1692 31 98.2255 30.6795 97.5023 30.0386C96.7864 29.3976 96.4284 28.5709 96.4284 27.5585H97.6433C97.6795 28.2941 97.9217 28.8659 98.3701 29.2738C98.8257 29.6744 99.4802 29.8747 100.334 29.8747C101.071 29.8747 101.664 29.6926 102.113 29.3284C102.561 28.9642 102.785 28.4799 102.785 27.8753Z" fill="#343434"/>
<path d="M25.4438 44.5793C24.8331 45.3742 24.0635 45.9746 23.135 46.3805C22.2064 46.778 21.19 46.9767 20.0858 46.9767C18.212 46.9767 16.7397 46.3425 15.6689 45.074C14.5981 43.8055 14.0418 42.0465 14 39.797V35.3066C14 32.9471 14.5061 31.1416 15.5183 29.8901C16.5389 28.63 17.9903 28 19.8725 28C21.5539 28 22.8715 28.4693 23.8251 29.408C24.7788 30.3467 25.3141 31.6998 25.4313 33.4672H24.0008C23.8502 32.0465 23.4361 31.0106 22.7585 30.3594C22.0893 29.6998 21.1315 29.37 19.885 29.37C18.396 29.37 17.2792 29.8732 16.5347 30.8795C15.7986 31.8774 15.4305 33.3446 15.4305 35.2812V39.5433C15.4305 41.4715 15.8362 42.9683 16.6476 44.0338C17.4674 45.0994 18.6135 45.6321 20.0858 45.6321C21.6836 45.6321 22.9886 45.1205 24.0008 44.0972V39.2896H19.998V37.9323H25.4438V44.5793Z" fill="#010202"/>
<path d="M34.0773 34.3171C33.7427 34.2579 33.4499 34.2283 33.199 34.2283C32.4294 34.2283 31.7811 34.4947 31.254 35.0275C30.7354 35.5603 30.3673 36.3002 30.1498 37.2474V46.723H28.757V32.9979H30.1247L30.1498 35.0529C30.8107 33.5137 31.848 32.7442 33.2617 32.7442C33.6298 32.7442 33.91 32.7992 34.1024 32.9091L34.0773 34.3171Z" fill="#010202"/>
<path d="M35.2448 39.1628C35.2448 37.1839 35.6882 35.6195 36.5749 34.4693C37.4616 33.3192 38.6704 32.7442 40.2013 32.7442C41.7405 32.7442 42.9493 33.3108 43.8277 34.444C44.7144 35.5772 45.1619 37.1374 45.1703 39.1247V40.5835C45.1703 42.5962 44.7228 44.1649 43.8277 45.2896C42.9409 46.4144 41.7405 46.9767 40.2264 46.9767C38.7122 46.9767 37.5118 46.4271 36.6251 45.3277C35.7384 44.2283 35.2783 42.7146 35.2448 40.7865V39.1628ZM36.6502 40.5835C36.6502 42.1649 36.9639 43.408 37.5913 44.3129C38.2271 45.2178 39.1054 45.6702 40.2264 45.6702C41.3724 45.6702 42.2466 45.2347 42.8489 44.3636C43.4596 43.4926 43.7691 42.2452 43.7775 40.6216V39.1628C43.7775 37.5814 43.4596 36.3383 42.8238 35.4334C42.1881 34.5201 41.3139 34.0634 40.2013 34.0634C39.1222 34.0634 38.2647 34.5074 37.6289 35.3953C36.9932 36.2833 36.6669 37.5053 36.6502 39.0613V40.5835Z" fill="#010202"/>
<path d="M55.159 45.0867C54.3894 46.3467 53.1974 46.9767 51.5828 46.9767C50.3531 46.9767 49.4246 46.5455 48.7972 45.6829C48.1698 44.8203 47.8519 43.5518 47.8435 41.8774V32.9979H49.2238V41.8393C49.2238 43.0825 49.4413 44.0254 49.8763 44.6681C50.3113 45.3108 50.9387 45.6321 51.7585 45.6321C53.5152 45.6321 54.6404 44.7696 55.1339 43.0444V32.9979H56.5393V46.723H55.1841L55.159 45.0867Z" fill="#010202"/>
<path d="M69 40.5074C69 42.6216 68.6361 44.2283 67.9083 45.3277C67.1805 46.4271 66.093 46.9767 64.6458 46.9767C63.0732 46.9767 61.8978 46.3425 61.1198 45.074V52H59.7396V32.9979H61.0195L61.0822 34.8753C61.8853 33.4545 63.0606 32.7442 64.6082 32.7442C66.0721 32.7442 67.168 33.2685 67.8958 34.3171C68.6236 35.3657 68.9916 36.9683 69 39.1247V40.5074ZM67.6072 39.2262C67.6072 37.4672 67.3353 36.1734 66.7915 35.3446C66.2562 34.5159 65.4154 34.1015 64.2694 34.1015C62.7971 34.1015 61.7472 34.8584 61.1198 36.3721V43.6025C61.7472 44.981 62.8055 45.6702 64.2945 45.6702C65.4154 45.6702 66.2436 45.2558 66.779 44.4271C67.3227 43.5983 67.5988 42.3214 67.6072 40.5962V39.2262Z" fill="#010202"/>
</svg>
